<svg width="80" height="80" viewBox="0 0 80 80" fill="none" xmlns="http://www.w3.org/2000/svg">
<path fill-rule="evenodd" clip-rule="evenodd" d="M80 52C80 46.0619 76.7651 40.8793 71.9615 38.1183C71.987 37.7489 72 37.3759 72 37C72 28.1634 64.8366 21 56 21C55.7717 21 55.5445 21.0048 55.3185 21.0143C53.7367 21.0805 52.2142 21.3765 50.7835 21.8696C48.378 16.0751 42.6649 12 36 12C29.2162 12 23.4184 16.2219 21.0909 22.1815C20.4119 22.0622 19.7132 22 19 22C12.3726 22 7 27.3726 7 34C7 35.5037 7.27657 36.9428 7.78162 38.2692C3.1199 41.0654 0 46.1683 0 52C0 60.8366 7.16344 68 16 68H64C72.8366 68 80 60.8366 80 52ZM2.03161 51.0515C2.01065 51.3649 2 51.6812 2 52C2 59.732 8.26801 66 16 66H64C71.732 66 78 59.732 78 52C78 47.0994 75.4829 42.7845 71.663 40.2812C71.1766 42.6142 70.1821 44.7614 68.8007 46.6006L67.2015 45.3994C68.7752 43.3043 69.7745 40.7545 69.9663 37.9806C69.9886 37.6569 70 37.33 70 37C70 29.268 63.732 23 56 23C55.7998 23 55.6006 23.0042 55.4026 23.0125C52.0512 23.1531 49.0062 24.4709 46.6669 26.5646L45.3331 25.0743C46.4125 24.1083 47.6242 23.2864 48.9376 22.6393L48.9364 22.6365C46.8299 17.5624 41.8286 14 36 14C30.0673 14 24.9918 17.691 22.9538 22.9091L22.358 24.4348L20.7447 24.1513C20.1795 24.052 19.5967 24 19 24C13.4772 24 9 28.4772 9 34C9 35.1759 9.20213 36.3005 9.57207 37.3436C11.5393 36.4796 13.7137 36 16 36V38C8.58679 38 2.51932 43.7618 2.03161 51.0515Z" fill="black"/>
</svg>
