<svg width="761" height="914" viewBox="0 0 761 914" fill="none" xmlns="http://www.w3.org/2000/svg">
<path d="M211.244 632.685L227.276 680.434L248.24 669.68L226.487 624.545C226.487 624.545 212.28 631.895 211.244 632.685Z" fill="#79E1CF"/>
<path d="M315.03 497.231C341.942 489.635 367.983 479.235 392.721 466.204L515.152 485.442C515.152 485.442 537.547 498.415 540.26 498.81C547.922 498.185 555.596 499.907 562.26 503.742C571.287 510.007 589.34 510.007 594.027 510.796C600.793 512.983 607.259 516.017 613.264 519.823C617.95 522.586 638.767 529.245 642.318 531.613C645.87 533.98 654.058 536.545 656.031 546.411C658.789 558.533 660.442 570.885 660.964 583.308C660.569 592.335 658.251 616.653 654.699 626.075C651.148 635.496 635.856 684.528 634.968 690.2C634.081 695.873 632.255 734.151 630.036 742.044C627.816 749.936 617.112 791.371 615.237 798.918C613.363 806.465 599.157 844.053 596.789 850.712C594.421 857.371 590.87 869.555 591.856 874.636C593.283 880.14 593.681 885.858 593.04 891.506C592.251 897.82 597.381 928.798 595.802 930.968C594.224 933.139 539.273 935.654 520.085 929.784C500.896 923.914 424.34 932.152 393.313 930.574C362.286 928.995 280.304 928.206 268.564 925.641C256.824 923.076 242.272 922.533 249.326 914.69C256.38 906.847 257.169 895.847 257.564 885.093C258.597 875.372 260.563 865.778 263.434 856.434L238.77 687.487L274.977 613.496L315.03 497.231Z" fill="#BED4FC"/>
<path d="M655.636 448.89C661.802 453.231 661.013 452.294 655.636 452.984C650.26 453.675 647.448 453.872 646.807 457.375C646.28 460.227 645.471 463.018 644.39 465.711C644.139 465.522 643.904 465.308 643.699 465.07C633.833 450.567 641.479 454.316 623.376 452.836C619.775 452.836 629.69 449.482 632.6 442.971C633.686 440.554 628.605 431.527 631.466 433.105C640.147 437.693 637.336 436.016 638.421 436.657C641.677 438.679 651.345 430.738 655.044 429.652C656.179 437.644 647.053 442.576 655.636 448.89Z" fill="#FFEAB6"/>
<path d="M728.641 295.975C731.058 296.862 723.708 298.984 720.699 301.253C715.767 304.903 720.403 307.961 720.009 313.091C716.161 311.463 711.82 303.226 706.098 303.226C695.789 306.679 695.148 308.158 693.323 308.158C693.914 304.459 702.596 296.961 697.663 292.966C695.74 291.486 690.955 284.432 693.372 284.975C702.941 287.194 702.892 287.638 704.717 286.356C714.336 279.746 714.583 269.584 716.359 283.495C717.888 295.975 714.78 291.042 728.641 295.975Z" fill="#FFEAB6"/>
<path d="M716.655 133.49C716.408 133.835 716.211 134.279 715.865 134.427C703.435 140.84 702.596 140.051 703.336 144.293C705.211 155.983 704.767 154.158 704.471 156.181C691.3 144.243 696.529 145.773 694.605 145.427C690.955 144.885 684.148 148.979 677.587 150.36C675.318 150.36 676.206 149.867 681.879 140.495C688.143 130.284 657.659 118.199 684.098 125.696C689.031 127.127 688.143 126.436 697.121 114.351C699.982 110.454 698.157 128.064 704.816 128.656C707.134 128.656 710.341 131.418 715.619 132.602C716.009 132.844 716.359 133.144 716.655 133.49Z" fill="#FFEAB6"/>
<path d="M206.411 348.262C231.469 342.639 206.411 350.531 211.985 359.903C216.572 367.993 218.447 367.253 209.519 365.28C199.16 362.962 203.846 362.271 193.093 373.173C191.81 374.504 193.339 369.078 193.734 363.948C194.178 357.832 182.339 355.859 180.613 352.652C181.451 352.652 179.971 352.652 187.568 351.912C196.94 351.123 192.501 345.845 196.595 337.459C199.949 340.37 203.402 348.903 206.411 348.262Z" fill="#FFEAB6"/>
<path d="M256.825 237.373C258.058 239.445 251.892 237.373 243.161 234.118C238.229 232.293 239.363 228.593 227.721 244.871C223.233 251.234 229.794 230.862 222.345 228.1C205.475 221.786 205.475 223.167 224.022 216.459C228.067 214.979 226.143 206.149 228.955 198.553C246.565 215.028 231.717 213.647 257.466 207.728C253.668 217.889 245.775 220.799 250.313 226.077C252.833 229.631 255.013 233.412 256.825 237.373Z" fill="#FFEAB6"/>
<path d="M391.34 526.877C393.658 537.828 395.927 539.11 393.362 538.716C371.017 535.213 349.214 513.115 344.725 494.568C343.887 491.065 343.295 491.411 347.044 490.128C358.044 486.231 363.716 482.038 362.335 484.505C359.573 489.437 361.546 495.801 361.201 498.07C359.918 506.603 365.837 513.805 374.371 518.343C375.506 518.935 375.111 518.837 382.658 519.33C387.591 518.146 388.232 517.653 388.824 519.33C389.93 521.751 390.772 524.279 391.34 526.877Z" fill="#FFC6A6"/>
<path d="M567.143 151.346C580.658 157.019 584.457 157.907 575.331 160.176C569.609 158.795 568.918 158.696 565.466 151.692C565.12 150.804 566.205 150.952 567.143 151.346Z" fill="#E6FCFF"/>
<path d="M594.174 149.176C595.013 149.176 594.964 149.768 594.618 150.212C592.596 152.925 590.277 156.92 586.479 154.503C576.614 148.14 557.376 145.23 562.654 136.992C564.825 133.638 563.049 137.485 574.295 142.319C586.479 147.548 590.869 149.57 594.174 149.176Z" fill="#E6FCFF"/>
<path d="M598.219 138.521C601.228 138.817 597.529 144.194 592.744 144.095C584.802 141.333 560.878 132.552 567.488 127.324C568.277 126.732 567.883 125.055 569.017 125.153C570.99 125.153 568.376 127.225 581.448 132.454C594.52 137.682 595.654 138.126 598.219 138.521Z" fill="#E6FCFF"/>
<path d="M573.506 114.598C599.65 134.329 610.009 124.167 602.116 133.342C600.636 135.069 594.914 132.158 592.744 131.369C582.188 127.472 564.578 121.849 573.506 114.598Z" fill="#E6FCFF"/>
<path d="M642.663 79.5258C644.193 79.9697 643.058 83.5706 641.677 82.8307C636.448 80.167 640.838 78.9338 642.663 79.5258Z" fill="#FFD152"/>
<path d="M590.524 66.0104C587.811 68.2302 586.578 63.9387 588.354 63.4454C588.946 63.2974 589.981 65.1719 590.524 66.0104Z" fill="#FFD152"/>
<path d="M609.121 25.6601C670.238 25.3148 683.408 105.719 619.874 112.97C611.587 113.956 610.009 111.589 607.444 114.894C602.807 121.454 605.816 124.414 602.018 123.427C594.265 121.446 586.874 118.25 580.116 113.956C573.852 110.158 585.049 109.024 581.793 101.97C578.538 94.9159 578.39 100.293 573.26 92.1043C549.533 54.2701 583.174 24.2296 609.121 25.6601ZM639.605 88.5034C642.713 96.1984 652.381 77.9966 644.933 75.5795C637.484 73.1625 635.511 78.3912 634.327 78.0952C622.883 75.5302 629.986 77.01 623.376 73.6064C620.318 72.028 617.901 75.7275 615.435 72.2253C611.538 66.6019 614.349 72.2253 596.049 64.9248C594.766 64.4315 594.076 62.6557 593.089 61.4719C592.103 60.288 590.574 60.288 588.748 59.7947C583.421 58.3642 580.363 69.2656 588.748 70.6961C589.636 70.6961 590.278 70.6961 589.982 72.2253C588.107 80.2657 599.009 87.0235 596.838 90.9204C593.891 96.5598 591.811 102.614 590.672 108.876C590.426 110.355 591.757 109.566 592.3 110.01C594.372 111.786 595.358 102.512 600.686 92.4989C604.287 85.8397 593.829 79.1805 594.076 73.4585C594.372 66.1087 597.233 70.3015 603.941 72.4226C607.69 73.6064 610.551 72.4226 611.587 74.889C612.257 76.2068 613.379 77.2407 614.744 77.8018C616.113 78.3633 617.634 78.4146 619.036 77.9473C623.574 76.7634 622.39 80.2657 627.717 81.4002C633.045 82.5347 632.995 82.2881 632.995 84.2612C632.995 84.9518 632.995 85.6917 632.157 85.889C629.62 86.7543 627.203 87.9307 624.955 89.3913C622.143 90.7231 623.376 88.454 618.69 91.5123C611.636 96.0998 612.82 93.1895 609.861 95.5079C604.928 99.5034 594.125 110.898 597.578 113.611C601.031 116.324 601.426 109.221 608.43 102.808C615.435 96.3958 614.349 99.5034 616.717 97.8756C621.65 94.8173 622.34 94.3733 623.08 94.324C627.323 93.9787 630.578 90.4271 633.785 90.1312C638.125 89.7365 636.991 85.9383 637.928 86.2343C638.865 86.5303 639.26 87.6648 639.605 88.5034Z" fill="#FFD152"/>
<path d="M216.821 71.2872C217.595 73.8502 217.574 76.5883 216.759 79.1389C215.944 81.6892 214.374 83.9323 212.256 85.5704C210.138 87.2089 207.572 88.1655 204.899 88.3139C202.225 88.4618 199.57 87.7951 197.284 86.4008C194.998 85.0069 193.189 82.9511 192.097 80.5065C191.005 78.062 190.68 75.3432 191.167 72.7103C191.654 70.0771 192.929 67.6543 194.823 65.7617C196.718 63.8692 199.142 62.597 201.776 62.1123C204.972 61.5356 208.268 62.151 211.041 63.8421C213.814 65.5328 215.87 68.1821 216.821 71.2872Z" fill="#9EDEFF"/>
<path d="M167.936 113.759C170.106 111.293 172.869 108.826 174.201 112.131C174.201 112.131 129.362 162.248 129.263 162.347C125.613 159.831 124.182 164.961 167.936 113.759Z" fill="#9EDEFF"/>
<path d="M197.681 157.365C198.569 159.486 198.175 158.696 167.098 189.477C165.52 191.105 166.26 191.055 164.533 166.342C164.533 164.024 184.264 148.584 190.627 140.988C196.991 133.391 195.314 134.674 197.681 157.365Z" fill="#9EDEFF"/>
<path d="M143.618 93.7321C147.416 93.2388 136.663 101.97 128.819 113.808C127.044 116.373 120.335 125.351 117.721 125.696C117.721 125.696 93.057 126.436 93.057 126.288C92.3665 125.351 105.537 112.772 117.721 98.8128C119.25 96.4944 119.25 96.889 143.618 93.7321Z" fill="#9EDEFF"/>
<path d="M263.533 22.1583C263.049 29.1381 261.519 36.0053 258.995 42.5305C247.107 71.5351 248.143 68.9207 244.887 63.1001C229.793 36.2166 208.878 33.5036 212.824 31.0865C222.828 23.7199 234.072 18.2067 246.022 14.8085C264.717 9.87579 262.645 14.8085 263.533 22.1583Z" fill="#FF8E92"/>
<path d="M562.802 383.334C559.004 370.361 568.376 337.657 571.188 330.406C575.002 317.333 576.108 303.62 574.443 290.105C572.47 274.666 561.618 248.522 555.896 235.845C550.174 223.168 525.313 199.688 517.421 193.571C509.528 187.455 471.694 171.571 458.228 165.652C444.761 159.733 420.541 158.401 420.541 158.401C416.928 153.878 411.884 150.717 406.236 149.436C400.593 148.154 394.677 148.828 389.465 151.347C374.667 157.908 372.2 173.692 370.918 174.038C340.335 173.692 336.043 198.356 336.043 198.356C324.698 209.849 327.855 217.101 332.59 224.648C337.326 232.195 352.667 232.392 352.667 232.392C352.667 232.392 445.945 212.119 474.407 256.513C502.869 300.908 491.672 373.321 491.672 373.321L492.461 445.24C496.979 449.531 502.627 452.442 508.743 453.642C514.856 454.838 521.186 454.267 526.99 451.998C509.282 438.482 512.685 430.787 512.685 430.787C539.519 447.361 551.358 430.787 551.358 430.787C546.799 429.895 542.524 427.901 538.915 424.979C535.302 422.052 532.461 418.291 530.64 414.016C538.545 416.412 546.709 417.851 554.959 418.307C577.008 420.428 581.941 408.442 581.941 408.442C581.941 408.442 566.551 396.307 562.802 383.334Z" fill="#FFB564"/>
<path d="M373.878 419.294C372.501 417.756 371.736 415.763 371.736 413.695C371.736 411.627 372.501 409.634 373.878 408.096C343.541 389.401 350.053 373.961 343.541 377.069C336.561 380.151 329.105 382.019 321.492 382.594C319.519 383.186 326.967 395.913 343.393 401.388C357.304 406.025 328.595 419.294 324.205 419.639C317.052 420.182 347.241 438.285 364.358 426.742C364.76 426.417 365.258 426.224 365.772 426.196C366.29 426.167 366.803 426.298 367.239 426.578C367.675 426.857 368.012 427.264 368.205 427.745C368.398 428.226 368.431 428.756 368.304 429.258C366.918 436.151 364.436 442.778 360.954 448.89C369.488 450.419 379.254 444.796 386.358 439.962C388.232 438.729 387.541 436.558 388.281 435.029C388.577 434.339 382.362 429.751 373.878 419.294Z" fill="#FFB564"/>
<path d="M296.187 480.065C305.214 498.81 305.608 497.872 303.389 498.662L203.106 531.76C201.922 531.76 203.55 534.572 181.254 490.473C180.12 488.254 174.151 491.263 244.541 467.684C256.775 463.59 268.416 459.496 281.488 455.204C284.842 454.119 282.03 450.765 296.187 480.065ZM282.721 496.097C280.6 492.446 278.923 494.962 276.308 495.061C275.667 495.061 211.788 514.792 207.25 516.962C205.03 517.899 203.008 520.859 205.721 521.55C206.757 521.796 278.923 500.487 282.721 496.097ZM267.232 475.28C268.811 474.491 269.896 471.729 266.541 471.038C265.95 471.038 262.151 472.173 256.676 473.554C237.192 478.487 234.479 482.137 229.447 482.038C223.627 482.038 223.873 484.406 215.192 486.33C195.461 490.72 198.667 492.594 193.389 492.841C192.748 492.841 191.712 494.37 191.514 494.962C191.07 496.738 196.447 497.774 199.012 496.343C204.497 493.396 210.488 491.505 216.671 490.769C224.81 489.339 224.514 486.724 229.299 486.971C238.425 485.738 241.878 482.038 250.165 479.967C258.452 477.895 260.918 478.487 267.232 475.28ZM254.259 493.285C255.084 493.338 255.902 493.096 256.563 492.598C257.224 492.097 257.684 491.382 257.86 490.572C257.86 484.899 238.129 493.926 228.806 495.505C220.322 496.935 201.035 502.559 198.223 505.617C196.25 507.787 197.335 509.02 199.999 509.168C209.864 505.814 208.532 505.37 212.084 504.236C232.604 498.464 218.496 503.2 240.25 496.935C250.115 494.271 250.757 493.285 254.259 493.285Z" fill="#FFF5DB"/>
<path d="M217.903 613.2C219.383 616.209 213.957 617.886 210.8 618.478C208.926 617.245 213.069 624.102 167.885 533.092C138.979 475.576 138.979 477.895 141.939 477.895C157.329 477.944 133.504 443.958 217.903 613.2Z" fill="#79E1CF"/>
<path d="M152.891 513.756C207.842 625.236 206.806 620.106 204.438 620.945C174.842 631.106 189.64 650.541 186.581 657.2C184.954 654.882 82.9937 445.98 82.3031 444.253C83.0923 443.957 80.4287 442.626 123.64 468.424C137.501 476.711 129.46 466.155 152.891 513.756Z" fill="#79E1CF"/>
<path d="M304.721 459.101C287.902 424.226 289.036 426.298 287.655 426.792C272.857 432.07 195.413 457.769 182.341 462.061C150.13 472.715 152.153 470.644 154.126 474.491C229.597 622.03 218.251 613.693 226.884 611.375C236.996 611.128 230.238 627.949 230.583 628.837C230.929 629.725 233.395 635.891 234.776 635.398C237.756 634.103 240.802 632.964 243.902 631.994C250.874 630.962 257.666 628.952 264.077 626.025C277.888 618.972 278.086 641.12 260.624 649.653C255.9 652.527 250.827 654.779 245.53 656.362C244.642 656.362 244.444 657.052 244.839 657.842C248.391 665.339 247.503 664.747 249.772 664.747C276.409 664.747 273.252 660.456 291.7 656.559C297.126 655.375 299.393 662.034 297.274 666.425C296.781 667.411 297.619 667.313 298.653 667.017C298.653 667.017 387.443 640.725 391.29 639.492C395.138 638.259 393.313 642.698 304.721 459.101ZM306.694 502.559C305.904 502.855 214.157 533.29 203.108 536.545C199.014 536.101 199.803 538.321 176.964 490.819C173.906 484.505 169.861 487.464 282.279 450.074C286.718 448.594 286.521 450.074 292.687 462.702C309.357 496.935 313.008 500.388 306.694 502.559Z" fill="#79E1CF"/>
<path d="M572.668 747.026C577.6 754.376 578.735 742.833 537.744 800.694C533.3 806.708 528.491 812.442 523.34 817.86C516.385 825.9 510.811 834.878 499.811 843.313C474.062 863.044 454.775 858.111 432.331 831.82C428.931 826.044 426.514 819.743 425.178 813.174C421.972 800.201 416.25 796.6 412.254 781.9C401.797 743.474 413.192 557.805 414.228 556.868C418.47 552.971 411.86 554.895 402.34 542.465C394.595 532.599 398.196 522.043 382.609 496.689C382.296 496.002 381.832 495.398 381.252 494.917C380.668 494.44 379.986 494.099 379.254 493.926C376.245 493.433 378.712 497.33 380.093 500.388C382.165 504.877 377.923 502.016 377.133 501.967C375.111 501.72 373.73 504.038 380.636 508.083C381.474 508.576 383.743 508.626 384.335 509.415C384.915 510.517 385.33 511.696 385.568 512.917C385.568 513.608 385.568 513.805 384.927 513.855C379.501 514.496 377.133 515.63 372.645 511.832C370.079 509.662 365.492 504.729 365.591 501.375C365.837 491.509 364.16 486.576 372.645 481.644C375.949 479.819 376.541 476.711 376.739 473.061C377.084 466.352 383.842 470.002 386.604 461.271C390.55 448.841 408.604 459.792 405.99 452.836C397.999 431.872 372.94 418.307 376.393 412.289C379.649 407.011 391.537 416.827 394.595 420.379C404.165 431.182 421.725 445.881 423.304 456.141C424.29 462.307 428.582 464.428 432.873 478.832C440.618 504.68 449.398 515.68 450.434 544.24C452.062 588.635 497.887 759.012 497.936 759.16C499.219 761.824 502.277 760.689 502.129 757.927C500.353 724.828 481.905 688.326 486.443 688.079C493.924 687.561 501.41 689.025 508.147 692.321C512.685 695.725 540.703 720.636 543.17 722.954C553.923 732.523 565.318 735.779 572.668 747.026Z" fill="#FFC6A6"/>
<path d="M516.829 328.58C537.645 310.97 562.259 325.275 541.493 358.522C537.349 365.083 533.206 370.755 515.102 378.253C491.573 388.119 488.761 327.89 488.318 437.446C488.318 468.523 491.672 477.846 535.327 499.007C537.053 499.846 521.91 511.142 521.811 511.191C495.519 530.034 510.959 521.056 481.856 532.747C476.923 534.622 456.551 543.057 456.205 539.949C452.259 506.949 444.367 499.402 438.941 480.065C434.008 462.998 428.483 458.657 427.99 452.935C427.299 444.549 408.259 428.271 405.941 425.312C405.102 424.325 405.201 423.931 406.434 423.487C462.026 405.383 453.591 391.621 447.968 394.926C436.524 401.585 385.272 419.935 361.398 392.558C335.205 362.468 334.613 309.047 345.465 312.401C349.95 313.393 354.624 313.136 358.973 311.657C363.317 310.178 367.177 307.535 370.129 304.015C372.99 301.154 370.129 312.056 383.94 314.571C386.801 315.114 387.887 311.612 386.16 310.773C381.967 308.652 378.021 307.666 375.752 300.612C373.976 295.136 391.044 299.527 390.55 286.701C390.55 283.298 387.245 283.199 386.506 286.257C385.174 291.535 386.506 290.746 378.613 292.226C377.923 292.226 377.725 292.226 377.972 291.387C382.313 277.724 380.932 273.827 385.371 270.522C387.295 269.398 389.486 268.811 391.71 268.823C393.938 268.835 396.12 269.445 398.032 270.589C399.943 271.734 401.509 273.371 402.574 275.328C403.635 277.286 404.152 279.494 404.066 281.719C404.707 297.849 420.344 321.477 438.595 320.787C464.443 319.751 471.891 293.114 476.578 290.204C479.685 288.231 482.941 289.464 496.062 297.504C499.909 299.822 488.712 323.204 506.963 331.195C508.887 332.033 504.694 334.598 509.38 336.128C509.923 336.719 512.587 332.132 516.829 328.58ZM540.457 344.069C541.139 342.691 541.423 341.15 541.275 339.618C541.127 338.087 540.555 336.629 539.622 335.407C538.685 334.185 537.427 333.249 535.988 332.705C534.55 332.161 532.988 332.031 531.479 332.329C523.488 334.056 514.757 344.217 518.999 352.455C520.43 355.267 518.999 361.087 516.04 361.778C510.17 363.06 509.775 360.298 508.345 362.962C506.914 365.625 510.071 367.894 513.277 367.894C523.439 367.894 526.842 356.253 523.587 349.989C523.172 349.305 522.925 348.531 522.871 347.731C522.822 346.932 522.966 346.132 523.291 345.401C525.362 340.468 535.672 331.145 536.658 344.365C536.905 345.746 539.421 346.24 540.457 344.069ZM384.779 349.643C384.779 347.868 383.694 342.688 379.55 342.589C374.618 342.589 373.878 349.939 377.429 353.54C379.55 355.76 383.595 356.253 384.779 349.643Z" fill="#FFC6A6"/>
<path d="M305.066 717.281C319.469 727.147 317.249 717.725 310.294 764.488C306.924 784.663 302.196 804.587 296.137 824.125C294.756 828.17 296.827 812.533 296.137 795.959C295.446 773.465 272.262 735.878 269.796 736.766C264.863 738.393 274.729 744.165 286.765 777.51C295.002 800.891 290.662 833.053 284.89 841.636C277.392 852.685 270.881 857.371 251.989 854.51C243.514 853.232 235.608 849.471 229.269 843.704C222.93 837.936 218.443 830.418 216.374 822.102C213.711 811.152 209.37 798.524 211.442 785.255C221.307 714.223 215.388 747.124 227.72 764.093H229.939C229.249 758.716 228.756 759.16 222.146 737.456C220.074 730.55 220.025 729.564 217.854 728.183C208.531 722.362 210.258 721.425 208.433 711.559C207.298 705.591 199.948 707.169 200.885 698.783C201.142 696.42 200.792 694.028 199.868 691.837C198.945 689.641 197.479 687.722 195.607 686.254C192.204 683.048 192.993 673.577 198.912 667.411C209.468 656.461 210.652 651.577 220.912 643.981C222.54 642.747 222.935 643.191 238.128 639.64C241.433 638.851 239.41 638.061 246.365 636.828C264.962 633.474 269.648 626.963 269.451 631.106C269.025 634.444 267.678 637.593 265.56 640.207C263.443 642.821 260.64 644.795 257.464 645.904C253.465 648.231 249.233 650.134 244.836 651.577C215.24 658.286 216.818 678.115 221.652 672.443C227.966 665.044 227.029 663.514 229.397 667.855C231.173 671.111 230.285 669.631 224.464 674.86C219.531 679.299 203.056 692.618 211.047 691.434C212.181 691.434 212.823 690.694 223.28 681.914C230.729 675.6 233.738 669.927 257.809 669.68C271.67 669.68 282.473 663.317 291.895 661.492C295.496 660.752 294.558 672.295 269.303 679.102C263.792 681.309 258.074 682.962 252.235 684.035C247.618 684.265 243.164 685.823 239.41 688.523C235.957 691.779 233.392 693.456 235.168 695.281C235.809 695.972 236.401 696.514 237.339 695.528C243.307 689.313 249.473 689.609 262.002 687.093C265.751 686.353 264.962 684.478 270.931 683.887C277.036 682.838 283.079 681.453 289.034 679.743C293.966 679.743 290.168 690.2 264.37 700.165C251.89 705.097 246.02 706.429 241.63 712.99C240.446 714.766 239.46 717.429 241.63 718.416C245.231 720.044 243.061 712.497 255.935 707.81C258.155 707.021 258.697 706.824 259.487 716.689C261.164 738.098 253.271 747.47 252.63 756.151C252.63 757.335 254.011 758.864 255.491 757.039C257.731 752.209 259.723 747.272 261.46 742.241C272.509 709.192 246.661 698.438 281.191 709.044C296.827 713.878 298.998 713.138 305.066 717.281Z" fill="#FFC6A6"/>
<path d="M225.206 617.097C231.914 615.568 226.34 630.07 214.058 636.828C204.192 642.402 203.206 642.945 201.825 644.622C200.443 646.299 201.825 648.42 203.107 647.976C211.197 645.608 224.614 631.155 197.089 662.774C190.578 670.272 191.565 670.815 190.677 664.205C190.735 661.693 190.966 659.19 191.367 656.707C192.6 650.837 186.138 636.976 193.044 632.586C201.981 627.152 211.473 622.687 221.358 619.267C222.547 618.388 223.839 617.66 225.206 617.097Z" fill="#FFC6A6"/>
<path d="M347.734 251.581C347.734 250.89 351.68 231.85 356.514 224.894C361.348 217.939 377.922 200.231 377.922 200.231C377.922 200.231 390.254 206.643 391.389 195.298C391.389 195.298 396.026 199.688 401.254 191.549C406.483 183.41 420.147 184.248 425.08 186.419C430.012 188.589 443.577 191.056 451.075 203.634C458.573 216.213 484.273 260.065 488.86 266.379C493.448 272.693 507.999 291.043 497.196 294.15L477.465 282.904C477.465 282.904 470.609 262.827 453.394 259.966C436.178 257.105 415.707 255.379 407.322 269.832C407.322 269.832 390.797 259.966 379.304 270.473C379.304 270.473 376.689 255.034 362.335 252.616C347.981 250.199 347.734 251.581 347.734 251.581Z" fill="#FFC6A6"/>
<path d="M17.389 346.191L15.0706 332.231L26.1693 341.603L40.4742 334.895L35.6401 350.828L45.8016 365.626L28.8329 362.715L22.1244 377.711L17.8329 359.707L3.08398 352.702L17.389 346.191Z" fill="#FFEAB6"/>
<path d="M727.852 341.997C704.816 360.347 702.35 395.518 690.758 387.083C677.489 377.217 669.004 366.907 668.61 352.109C668.61 348.015 666.39 344.02 662.444 345.499C659.237 346.898 655.941 348.084 652.578 349.051C641.282 352.011 641.726 341.75 636.497 346.535C634.393 347.991 632.424 349.643 630.628 351.468C629 352.948 629.789 352.109 626.04 349.298C622.291 346.486 616.865 350.333 617.605 352.504C617.967 353.032 618.493 353.421 619.101 353.61C619.71 353.798 620.367 353.773 620.959 353.54C623.87 352.257 624.314 355.02 627.273 357.387C632.206 361.383 636.103 348.36 640.345 351.369C647.399 356.302 650.605 354.625 661.359 350.975C668.018 348.755 655.242 363.504 681.928 386.145C696.726 398.823 699.242 394.827 710.834 371.643C715.076 363.159 723.413 349.347 730.96 344.71C734.067 342.786 737.718 341.8 745.314 347.176C763.121 359.804 755.18 363.011 752.861 368.486C752.467 369.472 754.588 371.248 755.525 369.966C761.395 361.925 759.767 364.441 761 360.544C758.879 348.311 738.901 333.217 727.852 341.997Z" fill="#000001"/>
<path d="M720.453 279.106C720.058 276.639 719.269 274.173 718.776 271.756C718.718 271.171 718.484 270.618 718.105 270.169C717.727 269.72 717.222 269.396 716.654 269.24C714.731 268.648 714.484 269.733 707.874 277.576C702.004 284.531 705.506 283.348 691.103 279.796C690.309 279.937 689.557 280.254 688.899 280.723C688.242 281.193 687.695 281.803 687.305 282.509C686.318 283.939 686.417 284.482 690.807 291.585C694.556 297.652 695.74 296.173 693.964 298.787C684.641 312.747 680.448 317.334 697.614 311.07C707.479 307.518 707.085 306.975 708.515 308.406C715.175 315.065 724.35 326.312 724.892 316.89C725.126 313.194 724.555 309.492 723.215 306.038C722.524 302.487 736.089 300.661 736.879 295.581C736.944 295.361 736.965 295.129 736.94 294.9C736.912 294.672 736.842 294.451 736.722 294.252C736.607 294.053 736.455 293.88 736.266 293.744C736.081 293.608 735.872 293.511 735.646 293.46C716.852 286.8 722.672 293.312 720.453 279.106ZM720.699 301.155C715.767 304.805 720.403 307.863 720.009 312.993C716.161 311.366 711.82 303.128 706.098 303.128C695.789 306.581 695.148 308.061 693.323 308.061C693.914 304.361 702.596 296.864 697.663 292.868C695.74 291.388 690.955 284.334 693.372 284.877C702.941 287.096 702.892 287.54 704.717 286.258C714.336 279.648 714.583 269.486 716.358 283.397C717.888 295.926 714.78 290.796 728.641 295.827C730.91 296.765 723.807 298.886 720.699 301.155Z" fill="#000001"/>
<path d="M658.892 198.898C659.287 218.629 671.668 228.494 650.95 225.831C619.183 221.687 612.82 214.041 615.829 237.127C616.224 240.234 616.372 239.248 601.031 245.463C593.336 248.62 596.838 252.517 601.031 250.889C615.04 245.167 621.206 244.329 620.762 238.212C619.775 227.409 618.394 225.485 622.488 226.176C650.161 230.616 654.847 231.651 659.829 231.109C679.264 229.037 654.502 198.109 667.771 191.647C677.094 187.01 680.202 194.409 724.942 212.216C727.408 213.203 729.874 214.189 730.664 211.871C731.453 209.553 729.184 209.405 727.951 208.911C683.556 190.71 688.094 189.822 678.623 186.714C676.539 185.739 674.245 185.298 671.947 185.43C669.65 185.563 667.422 186.266 665.465 187.475C663.508 188.683 661.88 190.361 660.734 192.355C659.587 194.349 658.954 196.598 658.892 198.898Z" fill="#000001"/>
<path d="M678.031 138.473C674.331 144.54 665.748 157.76 673.69 155.787C676.65 155.096 682.322 154.011 683.556 153.517C691.103 150.952 691.349 149.917 692.385 151.002C702.251 160.867 709.305 171.67 708.811 153.616C708.515 145.132 706.641 143.751 709.058 142.813C712.264 141.432 718.628 137.881 720.403 137.437C726.471 135.612 726.767 131.665 724.152 130.481C721.538 129.298 714.287 127.916 709.798 125.993C702.645 122.786 705.704 127.177 701.116 109.024C701.009 108.484 700.734 107.992 700.327 107.618C699.924 107.244 699.41 107.007 698.864 106.942C698.317 106.876 697.762 106.985 697.281 107.252C696.8 107.52 696.418 107.933 696.183 108.432C695.592 109.221 693.52 112.181 687.206 121.455C685.726 123.674 671.569 116.226 669.251 118.988C663.43 125.746 679.955 135.316 678.031 138.473ZM683.95 125.943C688.883 127.374 687.995 126.683 696.973 114.598C699.834 110.701 698.009 128.311 704.668 128.903C706.937 128.903 710.192 131.665 715.471 132.849C715.894 133.003 716.293 133.219 716.654 133.49C716.408 133.836 716.21 134.28 715.865 134.428C703.435 140.84 702.596 140.051 703.336 144.293C705.21 155.984 704.766 154.159 704.471 156.181C691.3 144.244 696.529 145.773 694.605 145.428C690.955 144.885 684.148 148.979 677.587 150.36C675.318 150.36 676.206 149.867 681.878 140.495C687.995 130.383 657.511 118.396 683.95 125.943Z" fill="#000001"/>
<path d="M561.421 149.769C561.199 151.695 561.384 153.646 561.963 155.496C562.539 157.347 563.501 159.056 564.775 160.514C566.053 161.973 567.619 163.148 569.379 163.965C571.138 164.781 573.046 165.222 574.986 165.257C582.188 165.899 585.098 159.733 587.811 160.325C593.878 161.509 598.712 154.8 598.91 150.015C598.91 147.499 600.784 145.822 601.771 143.405C602.757 140.988 601.475 139.459 602.757 139.064C604.644 137.766 606.165 136.005 607.176 133.949C608.187 131.893 608.652 129.612 608.528 127.325C608.528 126.683 610.206 124.414 608.528 122.392C608.183 121.948 609.86 119.284 610.255 118.89C610.65 118.495 657.609 122.244 665.847 80.858C677.883 20.3825 580.757 -4.08395 562.654 54.0238C552.788 85.2975 578.439 101.872 576.909 105.078C572.914 113.316 570.349 110.011 568.869 113.611C564.923 122.737 568.869 121.603 566.748 122.737C559.645 126.387 563.591 130.876 561.125 132.603C559.201 134.017 557.894 136.119 557.483 138.471C557.068 140.823 557.577 143.245 558.905 145.23C560.829 147.499 561.815 147.993 561.421 149.769ZM575.331 160.177C569.609 158.795 568.918 158.697 565.465 151.692C565.022 150.804 566.107 150.952 567.044 151.347C580.658 156.97 584.457 157.858 575.331 160.177ZM573.062 92.1047C549.335 54.4678 582.927 24.23 608.923 25.6605C670.04 25.3152 683.21 105.719 619.676 112.97C611.389 113.957 609.811 111.589 607.246 114.894C602.609 121.455 605.618 124.414 601.82 123.428C594.063 121.447 586.672 118.25 579.918 113.957C573.654 110.159 584.851 109.024 581.596 101.97C578.34 94.9164 578.389 100.293 573.062 92.1047ZM573.309 114.598C599.452 134.329 609.811 124.168 601.919 133.342C600.439 135.069 594.717 132.159 592.546 131.369C582.188 127.473 564.578 121.849 573.506 114.598H573.309ZM567.291 127.325C568.08 126.733 567.685 125.055 568.82 125.154C570.793 125.154 568.179 127.226 581.25 132.455C594.322 137.683 595.457 138.275 598.022 138.522C600.587 138.769 597.726 144.195 592.793 144.096C584.802 141.334 560.927 132.553 567.488 127.325H567.291ZM562.358 137.19C564.528 133.836 562.753 137.683 573.999 142.517C586.183 147.795 590.573 149.769 593.73 149.374C594.569 149.374 594.519 149.966 594.174 150.41C592.152 153.123 589.833 157.118 586.035 154.701C576.416 147.993 557.376 145.23 562.654 136.993L562.358 137.19Z" fill="#000001"/>
<path d="M658.941 445.733C655.094 443.267 656.574 442.971 657.412 439.321C660.816 424.522 660.668 425.558 660.47 424.522C660.446 424.107 660.306 423.704 660.068 423.359C659.829 423.014 659.5 422.747 659.118 422.578C658.736 422.41 658.316 422.348 657.901 422.406C657.486 422.463 657.096 422.632 656.771 422.895C651.838 426.792 646.215 429.11 641.183 432.76C638.865 434.339 631.071 426.446 629.295 427.137C626.681 428.222 624.757 429.505 625.596 432.711C629.098 445.388 628.013 444.056 626.188 445.24C620.811 448.693 616.322 450.173 616.668 454.563C616.668 458.115 627.421 457.868 631.466 457.917C635.511 457.967 634.672 459.693 636.053 461.962C642.219 472.124 645.919 477.994 648.977 466.451C651.641 456.881 648.336 457.917 664.713 457.375C671.717 456.832 666.439 450.518 658.941 445.733ZM655.439 452.886C649.668 453.626 647.251 453.774 646.609 457.276C646.083 460.129 645.273 462.92 644.192 465.612C643.937 465.423 643.707 465.209 643.502 464.971C633.636 450.469 641.282 454.218 623.179 452.738C619.578 452.738 629.493 449.384 632.403 442.872C633.488 440.455 628.408 431.428 631.269 433.007C639.95 437.594 637.138 435.917 638.224 436.558C641.479 438.581 651.147 430.639 654.847 429.554C656.179 437.693 646.807 442.626 655.636 448.841C661.852 453.132 661.013 452.195 655.439 452.886Z" fill="#000001"/>
<path d="M603.941 512.473C589.932 505.074 578.636 510.599 561.372 500.832C556.414 497.359 550.384 495.751 544.354 496.294C540.161 497.379 503.757 481.496 495.914 464.231C494.253 459.73 493.386 454.97 493.349 450.173C493.004 446.424 511.452 462.505 529.309 453.724C529.773 453.564 530.18 453.272 530.48 452.886C530.784 452.499 530.969 452.035 531.015 451.55C531.06 451.061 530.969 450.567 530.743 450.132C530.521 449.696 530.176 449.334 529.753 449.088C523.287 446.375 517.836 441.697 514.165 435.72C513.573 434.733 512.883 432.76 515.152 434.289C535.228 447.953 561.569 433.352 553.528 429.357C546.38 427.544 540.033 423.417 535.475 417.617C534.488 416.383 535.475 416.581 536.067 416.926C550.865 423.536 571.681 422.599 583.421 411.303C589.538 405.383 569.905 402.868 565.614 379.782C561.322 356.697 575.479 341.554 577.946 302.141C579.228 281.621 563.937 243.589 554.268 229.383C527.977 190.809 490.143 171.966 442.936 158.548C431.763 155.976 420.114 156.299 409.098 159.486C407.124 160.275 407.568 163.531 409.936 163.185C426.975 159.424 444.786 161.617 460.398 169.401C479.636 178.477 517.667 187.06 546.524 227.656C609.861 316.446 531.726 360.841 570.842 401.388C579.08 409.922 580.264 408.54 576.367 410.859C569.379 414.768 561.437 416.634 553.442 416.252C545.443 415.87 537.715 413.247 531.134 408.688C528.075 406.715 524.919 408.688 526.546 412.388C533.403 428.962 550.076 431.132 545.784 432.612C523.093 440.258 513.918 426.348 510.712 424.572C503.905 420.922 502.672 435.72 521.416 449.975C525.313 452.935 492.56 450.419 492.856 439.715C495.569 349.545 486.887 389.105 513.08 385.455C534.833 382.347 559.941 351.518 553.923 329.764C549.878 315.311 536.51 316.988 533.156 314.571C500.649 291.24 483.385 284.038 473.963 269.239C462.815 251.777 421.232 245.76 406.582 266.329C406.039 267.118 405.595 267.316 404.855 266.329C403.503 264.704 401.826 263.374 399.939 262.42C398.048 261.467 395.985 260.91 393.872 260.786C391.759 260.661 389.646 260.97 387.656 261.694C385.671 262.419 383.85 263.543 382.313 264.997C381.671 265.688 381.375 265.688 381.129 264.701C378.564 254.145 364.209 249.163 352.42 248.522C350.595 248.522 350.25 249.163 354.985 236.881C355.873 234.612 361.003 234.118 368.6 239.544C375.456 243.786 370.671 227.903 359.77 228.15C354.837 228.15 374.174 206.988 377.183 203.486C378.761 201.71 379.205 204.768 383.102 205.114C384.73 205.114 385.766 202.549 383.792 201.019C358.487 181.288 385.322 140.741 409.196 153.813C414.129 156.625 416.546 151.396 411.761 148.88C394.891 140.643 375.801 151.889 370.474 170.338C369.783 172.607 369.635 169.992 358.142 172.656C352.996 173.872 348.26 176.429 344.425 180.068C340.586 183.707 337.778 188.298 336.29 193.374C335.624 195.702 334.325 197.802 332.541 199.441C321.196 211.674 326.622 227.262 339.546 231.159C340.483 231.455 344.182 231.898 344.478 230.172C345.268 227.311 342.949 227.262 341.124 226.719C323.86 221.54 333.972 198.306 335.895 206.544C337.819 214.782 348.967 225.141 351.384 220.898C353.801 216.656 333.824 211.526 341.223 193.028C347.043 178.23 369.093 173.297 369.044 179.069C368.748 197.32 376.837 198.8 374.864 200.871C364.999 211.181 360.066 214.831 353.999 227.656C353.563 228.763 352.737 229.674 351.68 230.221C344.232 233.674 341.469 245.02 344.33 243.342C350.447 239.248 348.474 239.495 346.945 247.141C346.205 250.742 341.272 247.437 328.842 254.145C306.694 266.378 317.447 295.432 336.29 308.307C343.443 313.24 322.182 320.096 343.295 370.755C343.393 370.919 343.451 371.104 343.463 371.294C343.475 371.485 343.443 371.675 343.364 371.85C343.286 372.024 343.167 372.177 343.019 372.296C342.871 372.415 342.694 372.495 342.505 372.531C334.749 376.024 326.351 377.871 317.842 377.957C314.882 377.661 314.981 380.917 315.868 383.285C323.218 403.016 343.591 404.841 339.743 407.11C324.205 416.383 324.55 414.657 320.407 415.644C319.642 415.718 318.939 416.092 318.45 416.683C317.961 417.275 317.727 418.036 317.792 418.8C317.447 422.796 320.555 425.065 324.895 428.173C343.443 441.392 361.694 433.105 362.631 433.993C361.172 438.967 358.816 443.629 355.676 447.756C348.869 456.388 368.254 457.621 384.384 447.46C384.676 447.386 384.98 447.386 385.272 447.46C384.721 451.044 383.928 454.588 382.905 458.065C380.537 465.908 374.568 462.998 372.299 471.137C370.277 478.684 331.999 489.24 327.017 492.397C325.389 493.384 326.573 494.124 311.676 463.689C290.564 420.724 291.945 420.774 286.519 422.599C273.892 426.644 278.282 428.765 270.389 412.733C266.344 404.495 174.053 428.567 145.739 462.258C139.77 469.657 143.371 471.482 145.393 469.657C146.528 468.671 154.42 453.083 198.815 433.895C219.875 424.769 242.106 418.624 264.865 415.644C267.43 415.348 266.394 414.608 271.475 425.854C272.757 428.715 149.438 466.747 146.38 470.644C143.322 474.541 136.514 473.307 138.586 471.729C139.045 471.416 139.366 470.944 139.485 470.401C139.604 469.859 139.512 469.295 139.227 468.819C129.362 445.98 118.115 444.155 119.496 439.222C119.496 438.285 115.156 428.074 115.945 426.594C116.734 425.114 140.017 445.832 139.227 459.496C139.227 462.949 144.752 464.428 143.864 458.115C141.349 439.617 116.734 414.46 110.223 422.451C109.088 423.783 113.873 433.5 113.972 436.41C110.815 435.473 93.5009 421.612 88.0255 428.469C86.7923 429.949 87.3842 430.146 95.0793 444.352C97.0031 447.953 91.4784 443.908 86.0031 440.653C69.577 430.787 76.1376 440.307 84.8685 458.805C182.093 659.026 189.837 670.913 188.851 676.438C188.35 679.39 188.618 682.419 189.629 685.235C190.64 688.051 192.36 690.562 194.622 692.519C195.387 693.308 195.938 694.278 196.223 695.343C196.508 696.403 196.517 697.522 196.25 698.586C195.707 710.77 204.438 708.797 204.34 715.604C204.392 720.229 206.148 724.672 209.273 728.084C216.77 733.559 213.564 722.855 206.905 784.022C205.03 801.138 210.358 815.098 213.268 825.703C219.434 847.802 242.865 859.937 259.143 860.233C260.82 860.233 261.51 859.641 259.143 866.99C251.596 890.618 261.165 895.502 249.82 910.004C247.813 912.919 246.652 916.334 246.466 919.87C246.529 920.342 246.752 920.778 247.099 921.103C247.445 921.428 247.893 921.625 248.368 921.662C248.842 921.695 249.314 921.567 249.705 921.292C250.095 921.02 250.379 920.622 250.51 920.166C252.878 911.336 260.376 907.488 260.672 895.156C260.672 892.986 260.968 879.372 261.461 877.3C265.851 858.309 264.914 860.282 267.43 859.887C283.461 857.322 286.865 848.345 295.892 836.111C302.205 827.528 315.622 770.309 319.815 730.008C319.815 728.429 319.815 726.802 321.245 725.716C322.676 724.631 329.779 680.582 329.631 676.389C329.631 674.761 326.77 674.12 326.178 675.6C324.55 679.497 322.084 703.667 318.976 719.698C318.631 721.671 317.842 720.438 310.442 715.21C300.577 708.205 299.146 709.882 286.865 706.38C267.134 700.609 272.066 703.519 283.067 696.515C297.865 686.945 296.878 678.017 295.201 675.896C293.524 673.775 288.197 675.008 295.201 672.985C360.461 654.093 385.47 646.99 394.398 643.389C400.564 641.021 399.331 640.33 397.851 638.752C397.851 638.752 388.479 619.712 328.792 498.218C327.904 496.343 327.362 497.034 339.2 493.285C339.99 493.285 340.236 493.285 340.384 494.124C343.327 507.023 350.225 518.68 360.115 527.469C386.604 549.716 396.322 541.971 398.344 545.375C415.165 574.034 406.582 506.85 403.277 713.779C403.277 792.457 410.232 787.77 419.604 810.806C420.344 812.533 424.537 830.537 427.447 833.744C456.304 867.928 479.389 867.336 504.744 846.668C526.004 829.354 561.668 773.367 564.43 775.488C567.192 777.609 571.73 777.806 576.071 780.766C581.941 784.761 591.116 788.658 597.874 786.685C603.448 785.057 601.968 788.905 630.923 703.815C632.453 699.277 629.591 740.811 619.923 778.645C606.605 830.636 585.394 860.331 590.327 880.161C592.3 887.856 588.896 890.618 590.327 903.246C595.26 939.749 592.843 937.43 596.789 937.775C600.735 938.121 596.345 909.412 596 907.735C592.991 892.394 596.887 888.004 594.865 879.52C589.636 857.865 618.394 823.04 631.17 746.977C636.793 713.68 632.502 700.707 643.896 668.496C658.103 628.64 667.278 600.572 660.619 558.545C655.686 527.814 646.166 534.77 603.941 512.473ZM141.94 477.944C157.331 477.944 133.407 443.908 217.757 613.25C219.237 616.259 213.811 617.936 210.654 618.528C208.779 617.294 212.923 624.151 167.739 533.142C138.981 475.576 138.981 477.895 141.94 477.895V477.944ZM93.2049 432.119C99.7655 431.33 127.734 450.419 134.492 469.46C123 463.742 111.967 457.149 101.492 449.729C100.555 445.733 94.0435 434.98 93.2049 432.07V432.119ZM186.582 657.25C184.954 654.882 82.9941 446.029 82.3035 444.303C83.0927 444.007 80.4291 442.675 123.64 468.473C137.501 476.76 129.461 466.254 152.891 513.805C207.842 625.286 206.806 620.155 204.438 620.994C174.891 631.106 189.591 650.492 186.582 657.2V657.25ZM190.676 664.353C190.735 661.841 190.966 659.334 191.367 656.855C192.6 650.985 186.138 637.124 193.044 632.734C201.981 627.3 211.473 622.836 221.358 619.416C222.541 618.503 223.834 617.738 225.205 617.146C231.914 615.667 226.34 630.12 214.057 636.878C204.192 642.452 203.205 642.994 201.824 644.671C200.443 646.348 201.824 648.469 203.107 648.026C211.196 645.658 224.613 631.205 197.089 662.824C190.577 670.371 191.564 670.864 190.676 664.304V664.353ZM228.461 634.756C229.299 636.828 229.004 636.483 221.308 638.012C221.308 638.012 221.308 638.012 221.308 637.617C225.6 635.003 226.241 632.043 227.08 632.241C227.918 632.438 227.77 633.227 228.461 634.904V634.756ZM269.107 678.855C263.596 681.063 257.879 682.715 252.04 683.788C247.422 684.018 242.969 685.576 239.214 688.277C235.761 691.532 233.196 693.21 234.972 695.035C235.613 695.725 236.205 696.268 237.143 695.281C243.111 689.066 249.277 689.362 261.806 686.846C265.555 686.106 264.766 684.232 270.735 683.64C276.841 682.592 282.884 681.206 288.838 679.496C293.771 679.496 289.972 689.954 264.174 699.918C251.645 704.851 245.824 706.183 241.434 712.743C240.25 714.519 239.264 717.183 241.434 718.169C245.035 719.797 242.865 712.25 255.739 707.564C257.959 706.775 258.501 706.577 259.291 716.443C260.968 737.851 253.075 747.223 252.434 755.905C252.434 757.089 253.815 758.618 255.295 756.793C256.775 754.968 260.77 743.277 261.264 741.994C272.313 708.945 246.465 698.192 280.995 708.797C296.829 713.73 298.801 712.891 304.868 717.035C319.272 726.9 317.052 717.479 310.097 764.241C306.726 784.416 301.999 804.34 295.941 823.878C294.56 827.923 296.632 812.286 295.941 795.712C295.25 773.219 272.066 735.631 269.6 736.519C264.667 738.147 274.533 743.918 286.569 777.264C294.806 800.645 290.466 832.806 284.694 841.389C277.197 852.439 270.685 857.125 251.793 854.264C243.318 852.986 235.412 849.228 229.073 843.457C222.734 837.69 218.247 830.172 216.178 821.856C213.515 810.905 209.174 798.277 211.246 785.008C221.111 713.976 215.192 746.878 227.524 763.847H229.743C229.053 758.47 228.56 758.914 221.95 737.21C219.878 730.304 219.829 729.317 217.658 727.936C208.335 722.115 210.062 721.178 208.237 711.313C207.102 705.344 199.752 706.923 200.69 698.537C200.946 696.173 200.596 693.781 199.673 691.59C198.749 689.399 197.283 687.475 195.411 686.008C192.008 682.801 192.797 673.331 198.716 667.165C209.273 656.214 210.456 651.33 220.717 643.734C222.344 642.501 222.739 642.945 237.932 639.393C241.237 638.604 239.214 637.815 246.17 636.582C264.766 633.227 269.452 626.716 269.255 630.86C268.829 634.197 267.482 637.35 265.365 639.96C263.248 642.575 260.444 644.548 257.268 645.658C253.27 647.989 249.037 649.888 244.64 651.33C215.044 658.039 216.622 677.869 221.456 672.196C227.77 664.797 226.833 663.268 229.201 667.609C230.977 670.864 230.089 669.384 224.268 674.613C219.335 679.053 202.86 692.371 210.851 691.187C211.986 691.187 212.627 690.447 223.084 681.667C230.533 675.353 233.542 669.68 257.613 669.434C271.475 669.434 282.277 663.07 291.699 661.245C295.3 660.653 294.363 672.196 269.107 679.003V678.855ZM235.071 667.904C234.43 667.313 234.726 668.25 231.914 662.528C231.273 661.147 232.358 660.752 239.264 658.631C240.152 658.335 240.941 659.963 242.963 664.452C243.407 665.635 242.569 665.931 235.071 668.053V667.904ZM391.044 639.492C387.097 640.725 298.555 666.967 298.407 667.017C297.371 667.313 296.533 667.411 297.026 666.425C299.146 661.887 297.026 655.227 291.452 656.559C273.004 660.456 276.161 664.698 249.524 664.748C247.501 664.748 248.389 665.34 244.591 657.842C244.196 657.052 244.591 656.559 245.282 656.362C250.579 654.779 255.652 652.527 260.376 649.653C277.838 641.12 277.64 618.972 263.829 626.025C257.418 628.952 250.626 630.962 243.654 631.994C240.554 632.964 237.508 634.103 234.528 635.398C233.147 635.891 230.977 630.465 230.335 628.837C229.694 627.209 236.748 611.129 226.636 611.375C218.004 613.694 229.349 622.03 153.878 474.491C151.905 470.644 149.882 472.715 182.093 462.061C195.165 457.769 272.806 432.07 287.407 426.792C288.788 426.298 287.407 424.227 304.474 459.101C393.313 642.698 394.694 638.505 391.044 639.64V639.492ZM500.699 302.437C500.699 300.464 499.712 300.464 523.883 316.15C527.04 318.172 519.69 317.334 512.192 326.015C510.762 327.693 510.712 327.594 508.64 326.607C499.663 322.612 499.416 312.845 500.699 302.585V302.437ZM413.636 266.378C423.501 258.289 455.564 258.486 467.896 272.446C478.649 284.679 452.012 329.419 425.721 311.02C413.093 302.19 401.353 276.244 413.636 266.378ZM349.904 288.773C349.904 286.307 347.142 255.625 351.138 255.822C358.64 255.556 366.055 257.512 372.447 261.446C383.053 268.401 371.017 316.446 345.169 306.926C342.407 305.84 349.707 299.379 349.904 288.773ZM336.29 258.239C338.855 257.45 341.223 256.858 344.084 256.168C344.972 256.168 345.416 256.168 345.317 257.154C342.752 279.401 349.954 285.715 341.42 302.782C340.434 304.854 340.236 304.953 338.559 303.621C317.891 286.751 312.12 265.786 336.29 258.239ZM345.416 312.5C349.9 313.492 354.574 313.234 358.919 311.756C363.268 310.277 367.128 307.634 370.079 304.114C372.891 301.253 370.079 312.154 383.891 314.67C386.752 315.213 387.837 311.71 386.111 310.872C381.918 308.751 377.972 307.764 375.703 300.71C373.927 295.235 390.994 299.625 390.501 286.8C390.501 283.396 387.196 283.298 386.456 286.356C385.124 291.634 386.456 290.845 378.564 292.325C377.873 292.325 377.676 292.325 377.923 291.486C382.263 277.822 380.882 273.926 385.322 270.621C387.245 269.497 389.436 268.91 391.66 268.922C393.888 268.934 396.071 269.544 397.982 270.688C399.894 271.832 401.46 273.469 402.525 275.427C403.585 277.385 404.103 279.592 404.017 281.818C404.658 297.948 420.295 321.576 438.546 320.885C464.394 319.849 471.842 293.213 476.528 290.302C479.636 288.329 482.891 289.562 496.013 297.603C499.86 299.921 488.663 323.302 506.914 331.293C508.838 332.132 504.645 334.697 509.331 336.226C510.071 336.226 512.735 331.836 516.977 328.284C537.793 310.675 562.407 324.98 541.641 358.226C537.497 364.787 533.354 370.46 515.25 377.957C491.721 387.823 488.909 327.594 488.465 437.15C488.465 468.227 491.82 477.55 535.475 498.711C537.201 499.55 522.058 510.846 521.959 510.895C495.667 529.738 511.107 520.76 482.004 532.451C477.071 534.326 456.699 542.761 456.353 539.653C452.407 506.653 444.515 499.106 439.089 479.769C434.156 462.702 428.631 458.361 428.138 452.639C427.447 444.253 408.407 427.975 406.089 425.016C405.25 424.029 405.349 423.635 406.582 423.191C462.174 405.087 453.739 391.325 448.116 394.63C436.672 401.289 385.42 419.639 361.546 392.262C335.057 362.764 334.465 309.343 345.317 312.697L345.416 312.5ZM360.954 448.89C364.427 442.745 366.894 436.086 368.254 429.159C368.382 428.658 368.345 428.127 368.156 427.647C367.962 427.166 367.625 426.759 367.19 426.479C366.754 426.2 366.24 426.068 365.722 426.097C365.204 426.126 364.711 426.319 364.308 426.644C347.191 438.186 317.003 420.083 324.156 419.54C328.447 419.195 357.254 405.926 343.344 401.289C326.918 395.814 319.469 383.087 321.442 382.495C329.15 381.985 336.709 380.15 343.788 377.069C350.299 373.962 343.788 389.401 374.124 408.096C372.747 409.634 371.983 411.627 371.983 413.695C371.983 415.763 372.747 417.756 374.124 419.294C382.609 429.653 388.923 434.092 388.479 435.079C387.739 436.657 388.479 438.827 386.555 440.011C379.205 444.993 369.438 450.617 360.954 448.89ZM393.411 538.518C371.066 535.016 349.263 512.917 344.774 494.37C343.936 490.868 343.344 491.213 347.093 489.931C358.093 486.034 363.766 481.841 362.384 484.307C359.622 489.24 361.595 495.603 361.25 497.873C359.967 506.406 365.887 513.608 374.42 518.146C375.555 518.738 375.16 518.639 382.707 519.133C387.64 517.949 388.281 517.456 388.873 519.133C389.954 521.595 390.797 524.156 391.389 526.778C393.362 537.68 395.927 539.11 393.362 538.716L393.411 538.518ZM537.793 800.497C533.349 806.511 528.54 812.245 523.389 817.663C516.434 825.703 510.86 834.681 499.86 843.116C474.111 862.847 454.824 857.914 432.38 831.623C428.985 825.843 426.568 819.546 425.228 812.977C422.021 800.004 416.299 796.403 412.304 781.703C401.846 743.277 413.241 557.608 414.277 556.671C418.519 552.774 411.909 554.698 402.389 542.267C394.645 532.402 398.245 521.846 382.658 496.491C382.35 495.805 381.885 495.201 381.301 494.72C380.722 494.243 380.039 493.902 379.304 493.729C376.295 493.236 378.761 497.133 380.142 500.191C382.214 504.68 377.972 501.819 377.183 501.769C375.16 501.523 373.779 503.841 380.685 507.886C381.523 508.379 383.793 508.429 384.384 509.218C384.964 510.32 385.379 511.499 385.618 512.72C385.618 513.411 385.618 513.608 384.976 513.657C379.55 514.299 377.183 515.433 372.694 511.635C370.129 509.464 365.541 504.532 365.64 501.177C365.887 491.312 364.209 486.379 372.694 481.446C375.999 479.621 376.591 476.514 376.788 472.863C377.133 466.155 383.891 469.805 386.653 461.074C390.6 448.644 408.654 459.594 406.039 452.639C398.048 431.675 372.99 418.11 376.443 412.092C379.698 406.814 391.537 416.63 394.645 420.182C404.214 430.984 421.775 445.684 423.353 455.944C424.34 462.061 428.631 464.231 432.923 478.635C440.667 504.482 449.447 515.482 450.483 544.043C452.111 588.438 497.936 758.815 497.986 758.963C499.268 761.627 502.327 760.542 502.179 757.73C500.403 724.631 481.954 688.129 486.492 687.882C493.974 687.364 501.463 688.828 508.197 692.124C512.735 695.528 540.753 720.438 543.219 722.757C553.43 732.129 564.824 735.385 572.174 746.631C577.403 754.376 578.784 742.833 537.744 800.694L537.793 800.497ZM389.81 449.581C392.08 437.94 391.833 438.383 393.214 439.715C395.689 442.428 397.703 445.528 399.183 448.89C400.219 450.814 397.062 450.123 397.012 449.926C389.958 451.209 389.12 451.801 389.514 449.778L389.81 449.581ZM601.524 773.268C601.319 773.679 601.035 774.049 600.686 774.353C600.414 774.082 600.168 773.782 599.946 773.465C586.529 753.734 579.771 748.802 576.614 743.178C572.618 736.124 561.076 728.824 554.12 724.582C549.533 721.77 540.605 712.595 533.551 707.021C517.618 694.443 517.223 686.501 494.483 683.393C491.031 682.9 485.752 684.429 484.914 683.739C484.075 683.048 484.914 681.864 488.909 674.169C492.26 667.222 496.276 660.612 500.896 654.438C521.318 625.631 517.174 627.111 524.129 615.223C536.363 594.11 539.569 596.676 559.152 575.761C585.986 547.052 587.318 546.411 589.094 541.873C589.883 539.752 588.008 538.765 587.022 539.801C525.658 604.617 531.528 591.595 518.95 615.075C491.08 667.165 507.358 630.909 483.582 673.775C481.066 678.263 453.986 554.501 456.6 546.213C457.34 543.846 460.102 547.644 481.264 538.666C513.277 525.003 496.407 536.101 523.192 516.37C536.757 506.505 542.923 495.505 556.685 503.742C574.443 514.397 580.856 510.007 597.529 514.94C606.358 517.554 605.47 520.465 642.515 535.411C653.367 539.801 654.897 549.37 656.179 558.792C662.542 608.465 658.103 614.483 601.228 773.465L601.524 773.268Z" fill="#000001"/>
<path d="M588.995 70.6965C589.883 70.6965 590.524 70.6965 590.228 72.2257C588.354 80.2661 599.255 87.0239 597.085 90.9208C594.133 96.5602 592.057 102.614 590.919 108.876C590.672 110.356 592.004 109.567 592.546 110.011C594.618 111.786 595.605 102.513 600.932 92.4993C604.533 85.8401 594.076 79.1809 594.322 73.4589C594.618 66.1091 597.479 70.3019 604.188 72.423C607.937 73.6069 610.798 72.423 611.833 74.8894C612.504 76.2072 613.622 77.2411 614.991 77.8022C616.359 78.3637 617.88 78.4151 619.282 77.9477C623.82 76.7638 622.636 80.2661 627.964 81.4006C633.291 82.5351 633.242 82.2885 633.242 84.2616C633.242 84.9522 633.242 85.6921 632.403 85.8894C629.867 86.7547 627.45 87.9312 625.201 89.3917C622.39 90.7235 623.623 88.4544 618.937 91.5127C611.883 96.1002 613.067 93.1899 610.107 95.5083C605.174 99.5038 594.372 110.898 597.824 113.611C601.277 116.324 601.672 109.221 608.677 102.809C615.681 96.3962 614.596 99.5038 616.964 97.876C621.896 94.8177 622.587 94.3737 623.327 94.3244C627.569 93.9791 630.825 90.4275 634.031 90.1316C638.372 89.737 637.237 85.9387 638.174 86.2347C639.112 86.5307 639.112 87.4679 639.457 88.3065C642.565 96.0509 652.233 77.7997 644.784 75.3826C637.336 72.9656 635.363 78.1943 634.179 77.8984C622.735 75.3333 629.838 76.8132 623.228 73.4096C620.17 71.8311 617.753 75.5306 615.286 72.0284C611.39 66.405 614.201 72.0284 595.901 64.7279C594.618 64.2346 593.928 62.4588 592.941 61.275C591.955 60.0911 590.425 60.0911 588.6 59.5978C583.421 58.3646 580.363 69.0687 588.995 70.6965ZM642.663 79.5262C644.192 79.9701 643.058 83.571 641.677 82.8311C636.448 80.1674 640.838 78.9342 642.663 79.5262ZM588.403 63.4454C588.995 63.4454 590.031 65.1719 590.573 66.0104C587.86 68.2302 586.578 64.136 588.354 63.4454H588.403Z" fill="#000001"/>
<path d="M623.425 602.101C607.049 610.487 585.197 625.729 534.636 628.837C532.712 628.837 530.788 629.725 531.035 631.698C531.282 633.671 573.21 635.891 624.757 606.146C631.565 602.151 627.914 599.832 623.425 602.101Z" fill="#000001"/>
<path d="M542.331 615.568C568.721 607.33 602.659 581.039 600.488 578.178C596.197 572.702 585.345 594.702 540.901 612.066C539.322 612.658 540.013 615.075 542.331 615.568Z" fill="#000001"/>
<path d="M523.735 279.845C524.573 280.733 544.058 298.392 546.179 292.917C546.968 290.845 545.686 290.253 538.878 285.518C503.412 261.446 488.367 212.71 471.497 202.253C470.362 201.562 469.425 204.275 469.869 205.114C473.745 209.387 477.26 213.973 480.376 218.827C501.044 251.877 495.914 249.706 523.735 279.845Z" fill="#000001"/>
<path d="M526.25 530.034C515.053 536.693 514.806 539.9 508.986 542.415C505.138 544.092 474.456 556.079 477.071 560.568C478.501 562.886 478.255 561.012 511.6 546.164C516.344 543.213 520.861 539.916 525.116 536.299C541.986 524.115 544.353 524.312 543.515 521.5C542.035 517.012 532.86 526.137 526.25 530.034Z" fill="#000001"/>
<path d="M513.425 367.697C523.587 367.697 526.99 356.055 523.735 349.791C523.319 349.108 523.073 348.333 523.019 347.533C522.97 346.734 523.114 345.934 523.439 345.203C525.51 340.271 535.82 330.947 536.806 344.167C536.806 345.746 539.371 346.239 540.457 344.167C541.143 342.789 541.427 341.247 541.279 339.717C541.131 338.186 540.555 336.726 539.622 335.505C538.689 334.283 537.431 333.347 535.993 332.803C534.554 332.259 532.992 332.129 531.479 332.427C523.488 334.154 514.757 344.315 518.999 352.553C520.43 355.365 518.999 361.185 516.04 361.876C510.17 363.159 509.775 360.396 508.344 363.06C506.914 365.723 510.071 367.697 513.425 367.697Z" fill="#000001"/>
<path d="M479.34 143.06C479.636 139.705 478.649 130.284 486.986 128.015C493.694 126.14 497.394 126.782 500.403 121.553C502.968 117.113 500.403 115.732 502.82 111.145C510.91 96.3464 506.766 98.6155 517.618 93.8801C546.623 81.0056 522.551 64.5795 519.986 72.8665C518.654 76.8621 521.219 79.1311 522.945 75.2836C523.833 73.2612 533.255 80.5616 522.156 86.6289C511.896 92.2029 506.914 92.1536 504.152 99.2074C501.389 106.261 496.95 110.75 497.098 117.261C497.098 121.898 492.806 121.75 487.824 122.737C483.882 123.816 480.429 126.219 478.049 129.543C475.669 132.866 474.506 136.907 474.752 140.988C474.851 149.867 478.699 150.755 479.34 143.06Z" fill="#000001"/>
<path d="M417.187 182.867C413.997 182.793 410.824 183.396 407.885 184.638C404.942 185.879 402.294 187.73 400.12 190.069C397.209 193.176 400.12 195.988 403.079 193.472C405.287 191.195 408.025 189.506 411.05 188.558C414.071 187.61 417.286 187.434 420.393 188.046C457.29 192.979 459.855 238.508 497.591 283.495C502.08 288.773 505.582 286.849 503.856 283.742C496.892 275.142 490.451 266.132 484.568 256.76C453.443 200.921 450.434 187.8 417.187 182.867Z" fill="#000001"/>
<path d="M420.147 228.643C418.42 230.468 417.138 234.414 419.703 233.576C423.254 232.145 426.609 227.952 435.537 228.051C447.918 228.051 452.407 246.203 453.245 236.979C452.21 222.329 434.254 213.499 420.147 228.643Z" fill="#000001"/>
<path d="M428.681 286.701C431.344 286.701 431.492 284.926 432.183 282.213C431.394 276.984 427.25 277.28 426.264 280.289C425.277 283.298 425.77 286.553 428.681 286.701Z" fill="#000001"/>
<path d="M388.725 189.427C388.725 192.732 388.725 198.75 392.129 198.208C396.618 197.517 389.218 189.132 396.075 178.477C396.835 177 397.921 175.711 399.24 174.704C400.564 173.698 402.093 172.998 403.721 172.656C404.292 172.423 404.789 172.047 405.172 171.562C405.55 171.078 405.801 170.503 405.891 169.894C405.644 163.383 388.528 170.535 388.725 189.427Z" fill="#000001"/>
<path d="M356.021 6.71832C357.501 7.11294 359.622 4.99186 361.99 4.59724C365.541 4.00531 374.963 3.70934 376.788 7.31025C382.658 18.6063 362.779 32.7139 360.362 48.3014C358.833 58.1669 369.192 60.732 385.026 65.1221C398.689 68.871 373.236 86.2836 381.03 96.7904C382.313 98.4675 385.963 101.723 388.923 104.831C396.371 112.625 386.703 123.033 391.586 124.069C396.47 125.104 400.071 108.826 391.586 100.589C382.165 91.1177 381.178 94.4227 391.192 76.9114C393.806 72.3239 395.236 64.2835 389.514 61.8172C383.792 59.3508 384.582 61.1759 370.869 55.8485C349.954 47.8081 389.712 23.9336 380.29 5.33715C378.12 0.00977878 373.532 0.60171 367.268 0.00977939C354.64 -0.286186 354.196 6.22505 356.021 6.71832Z" fill="#000001"/>
<path d="M384.779 349.643C384.779 347.867 383.694 342.688 379.55 342.589C374.617 342.589 373.878 349.939 377.429 353.54C379.55 355.759 383.595 356.253 384.779 349.643Z" fill="#000001"/>
<path d="M366.774 278.365C366.38 273.432 362.483 273.432 361.841 275.306C358.734 280.88 365.196 286.109 366.774 278.365Z" fill="#000001"/>
<path d="M282.03 450.074C169.612 487.514 173.509 484.603 176.715 490.819C199.554 538.321 198.765 536.101 202.859 536.545C214.106 533.29 305.855 502.855 306.447 502.559C312.761 500.388 309.111 496.935 292.241 462.702C286.321 450.271 286.519 448.594 282.03 450.074ZM303.339 498.662L203.106 531.761C201.922 531.761 203.55 534.572 181.254 490.473C180.119 488.254 174.15 491.263 244.541 467.684C256.774 463.59 268.415 459.496 281.487 455.204C284.891 454.119 282.178 450.765 296.285 479.868C305.214 498.81 305.608 497.922 303.389 498.662H303.339Z" fill="#000001"/>
<path d="M276.309 495.061C275.668 495.061 211.788 514.792 207.25 516.962C205.03 517.899 203.008 520.859 205.721 521.55C206.609 521.55 278.775 500.487 282.573 496.097C280.6 492.446 278.923 494.962 276.309 495.061Z" fill="#000001"/>
<path d="M216.771 490.769C224.91 489.339 224.614 486.724 229.398 486.971C238.524 485.738 241.977 482.038 250.264 479.967C258.551 477.895 260.919 478.487 267.381 475.034C268.959 474.245 270.044 471.482 266.69 470.792C266.098 470.792 262.3 471.926 256.825 473.307C237.34 478.24 234.627 481.89 229.596 481.792C223.775 481.792 224.022 484.159 215.34 486.083C195.609 490.473 198.815 492.348 193.537 492.594C192.896 492.594 191.86 494.124 191.663 494.716C191.219 496.491 196.596 497.527 199.161 496.097C204.648 493.24 210.62 491.435 216.771 490.769Z" fill="#000001"/>
<path d="M233.443 244.625C240.645 235.055 236.402 236.437 260.129 244.625C260.623 244.854 261.176 244.919 261.71 244.813C262.244 244.706 262.729 244.433 263.097 244.032C263.465 243.631 263.696 243.124 263.757 242.583C263.817 242.042 263.704 241.496 263.434 241.024C260.837 235.389 257.837 229.949 254.456 224.746C252.434 222.181 262.842 211.082 263.039 205.015C263.335 196.087 245.035 210.934 241.039 205.706C237.833 201.513 232.95 196.876 229.743 191.795C228.313 189.477 225.55 188.638 225.107 191.401C221.308 216.607 227.425 210.392 213.367 215.818C205.523 218.876 205.277 218.827 204.833 221.342C203.452 229.284 221.802 230.419 221.851 234.02C222.147 250.248 221.506 249.262 221.851 252.665C221.92 253.122 222.112 253.551 222.405 253.908C222.698 254.265 223.082 254.536 223.517 254.692C223.951 254.849 224.42 254.885 224.873 254.798C225.327 254.71 225.748 254.502 226.093 254.194C228.806 251.216 231.265 248.015 233.443 244.625ZM222.344 228.1C205.474 221.786 205.474 223.167 224.021 216.459C228.066 214.979 226.142 206.149 228.954 198.553C246.564 215.028 231.716 213.647 257.465 207.728C253.667 217.889 245.775 220.8 250.313 226.078C252.85 229.629 255.046 233.411 256.873 237.374C258.107 239.446 251.941 237.374 243.21 234.118C238.277 232.293 239.411 228.594 227.77 244.872C223.232 251.235 229.793 230.863 222.344 228.1Z" fill="#000001"/>
<path d="M138.488 158.4C140.856 155.835 140.905 155.835 143.076 158.4C145.285 161.028 146.96 164.06 148.008 167.329C148.896 170.486 145.542 168.809 144.506 168.858C139.573 168.858 141.596 172.557 142.829 173.149C154.964 179.019 160.192 165.06 160.538 169.647C161.08 175.862 161.031 182.62 161.327 190.759C161.327 194.459 164.336 197.271 166.852 195.001C169.367 192.732 176.076 185.925 185.596 176.652C201.184 161.409 201.825 161.853 201.627 158.844C199.358 125.795 196.695 134.181 207.547 122.391C220.668 108.234 247.009 79.4271 255.542 62.1625C268.713 36.0682 273.942 8.59281 261.659 7.21164C245.233 5.38652 216.672 19.7408 202.466 32.2206C192.278 40.945 182.764 50.4266 174.004 60.584C144.408 93.0908 152.793 87.8128 139.475 89.5886C112.69 93.0415 122.062 87.2702 88.7661 123.575C84.6719 128.064 87.5822 131.122 90.2459 131.122C98.2407 130.287 106.285 130.024 114.318 130.333C112.924 131.776 111.899 133.534 111.333 135.458C110.766 137.382 110.673 139.415 111.062 141.382C112.091 145.292 114.153 148.853 117.031 151.692C118.659 152.728 119.842 150.903 119.201 148.979C118.905 147.992 113.824 140.495 115.304 138.669C116.784 136.844 120.533 138.669 131.434 146.956C134.443 149.226 128.672 151.396 123.789 158.598C120.977 162.84 125.959 165.01 127.291 165.997C128.623 166.983 129.856 167.181 131.188 166.244L138.488 158.4ZM114.318 191.598C79.7885 245.858 72.0934 302.683 98.7303 373.32C99.2235 374.554 100.901 380.128 102.578 378.993C107.905 375.491 79.7392 331.096 89.0127 265.786C97.5464 205.706 137.206 171.028 138.34 165.8C138.932 163.235 137.995 162.149 134.937 163.333C127.38 172.236 120.488 181.683 114.318 191.598ZM129.708 140.051C120.089 132.799 116.291 136.006 118.116 132.898C119.004 131.369 119.892 129.643 121.322 130.284C128.179 130.876 130.547 133.49 138.834 139.113C140.264 140.1 139.129 141.185 136.86 143.405C135.529 144.885 135.825 144.589 129.905 140.051H129.708ZM129.116 162.347C125.466 159.831 123.838 164.961 167.789 113.759C169.959 111.293 172.722 108.826 174.053 112.131C174.201 112.279 129.363 162.248 129.116 162.347ZM155.506 167.279C151.165 170.979 155.062 167.279 147.564 157.414C144.112 152.876 143.668 152.876 144.309 152.136C148.304 147.45 147.466 145.23 157.035 163.925C158.022 165.257 157.035 165.997 155.654 167.181L155.506 167.279ZM166.95 189.575C165.372 191.203 166.112 191.154 164.385 166.441C164.385 164.122 184.116 148.683 190.479 141.086C196.843 133.49 195.412 134.773 197.533 157.463C198.569 159.486 198.175 158.696 167.098 189.477L166.95 189.575ZM212.973 31.0861C222.932 23.7355 234.124 18.2227 246.022 14.8081C264.717 9.87533 262.646 14.8081 263.533 22.1578C263.054 29.1381 261.524 36.0061 258.995 42.5301C247.107 71.5347 248.143 68.9203 244.888 63.0997C229.793 36.2162 208.928 33.6018 212.973 31.0861ZM206.61 36.0189C212.923 30.0502 248.785 66.8979 243.605 73.8037C228.462 94.1267 175.78 153.32 161.869 161.853C158.972 156.215 155.676 150.792 152.004 145.625C150.771 143.799 150.623 145.033 168.035 125.647C177.901 114.4 180.713 113.118 177.26 108.876C175.78 107.05 171.834 104.387 169.318 106.952C166.802 109.517 165.421 111.243 153.04 125.45C141.645 138.472 144.013 136.992 139.968 133.934C123.69 121.651 120.78 131.32 131.188 118.051C154.53 89.1208 179.671 61.6897 206.462 35.9202L206.61 36.0189ZM117.376 98.6648C119.398 96.2971 119.398 96.6917 143.618 93.7321C147.417 93.2388 136.663 101.97 128.82 113.808C127.044 116.373 120.336 125.351 117.721 125.696C117.721 125.696 93.0576 126.436 93.0576 126.288C92.0217 125.4 105.192 112.822 117.376 98.6648Z" fill="#000001"/>
<path d="M240.25 497.133C250.116 494.272 250.757 493.384 254.259 493.334C255.085 493.388 255.903 493.145 256.563 492.648C257.224 492.151 257.684 491.431 257.86 490.621C257.86 484.949 238.129 493.976 228.806 495.554C220.322 496.985 201.035 502.608 198.223 505.666C196.25 507.837 197.335 509.07 199.999 509.218C209.864 505.864 208.532 505.42 212.084 504.285C232.703 498.662 218.497 503.397 240.25 497.133Z" fill="#000001"/>
<path d="M222.837 340.369C219.779 340.764 209.617 342.984 208.039 343.428C205.129 344.168 196.003 323.993 193.685 331.49C188.012 349.939 195.806 346.93 181.353 348.163C175.433 348.657 175.335 350.235 175.483 353.096C175.483 355.02 176.173 355.414 179.725 357.585C195.756 367.45 188.752 360.298 187.42 378.549C187.42 381.065 188.703 382.248 190.725 381.607C195.312 380.078 202.564 366.809 205.918 368.535C210.771 370.214 215.711 371.63 220.716 372.777C223.528 373.567 224.712 372.087 224.366 369.916C223.824 366.464 220.026 364.984 216.227 357.979C215.389 356.351 215.586 357.091 225.008 345.795C226.635 343.724 227.375 339.827 222.837 340.369ZM211.985 360.1C216.573 368.19 218.447 367.45 209.519 365.477C199.16 363.159 203.846 362.468 193.093 373.37C191.81 374.702 193.339 369.275 193.734 364.145C194.178 358.029 182.339 356.055 180.613 352.849C181.451 352.849 179.972 352.849 187.568 352.109C196.94 351.32 192.501 346.042 196.595 337.656C199.949 340.517 203.402 349.1 206.46 348.459C231.469 342.638 206.559 350.531 211.985 360.1Z" fill="#000001"/>
<path d="M204.39 92.8438C228.215 91.6106 226.538 56.736 203.65 57.2786C178.444 60.3369 183.031 93.7317 204.39 92.8438ZM201.775 62.1127C203.696 61.772 205.669 61.8607 207.551 62.3721C209.434 62.8835 211.179 63.8051 212.664 65.0707C214.148 66.3368 215.334 67.9153 216.136 69.6935C216.938 71.4714 217.337 73.405 217.303 75.3555C217.27 77.306 216.805 79.2248 215.943 80.9743C215.08 82.7242 213.841 84.2612 212.315 85.4755C210.788 86.6898 209.011 87.5509 207.113 87.9977C205.214 88.4446 203.24 88.4655 201.332 88.059C198.332 87.4202 195.648 85.7587 193.739 83.3585C191.83 80.9587 190.815 77.9695 190.868 74.9034C190.92 71.8368 192.037 68.8842 194.027 66.551C196.017 64.2178 198.756 62.6487 201.775 62.1127Z" fill="#000001"/>
<path d="M149.981 420.971C146.726 421.563 146.084 425.904 150.277 425.904C171.685 425.558 172.771 386.787 152.152 387.083C149.91 387.001 147.672 387.317 145.542 388.02C145.246 385.209 150.475 372.926 144.95 363.357C138.833 352.801 121.125 353.491 115.353 368.043C113.138 374.337 112.19 381.008 112.562 387.671C112.934 394.334 114.621 400.853 117.524 406.863C118.658 409.083 121.519 407.8 120.829 404.841C106.031 362.765 134.986 351.913 141.497 367.106C146.923 379.783 135.183 393.791 140.264 396.702C143.865 398.724 145.69 390.782 152.645 391.769C161.672 393.347 163.3 403.164 161.82 409.724C159.304 420.527 152.497 420.478 149.981 420.971Z" fill="#000001"/>
<path d="M98.9271 383.482C71.353 338.199 64.3979 259.028 98.4832 194.508C106.323 180.761 115.109 167.575 124.775 155.046C129.362 150.557 124.775 148.189 122.259 151.05C93.6984 184.84 71.3037 233.773 71.3037 277.871C71.3037 342.49 87.4831 373.961 95.5729 383.63C99.5191 388.168 101.541 387.773 98.9271 383.482Z" fill="#000001"/>
<path d="M76.0382 422.451C51.3744 430.195 54.1861 401.585 78.6032 411.5C78.9045 411.681 79.242 411.796 79.5918 411.833C79.942 411.874 80.296 411.833 80.6298 411.722C80.9631 411.611 81.2681 411.426 81.523 411.183C81.7783 410.941 81.9768 410.645 82.1055 410.316C83.4373 407.307 80.823 406.567 78.3072 405.729C64.8408 401.24 79.8364 375.54 98.4822 406.913C100.011 409.478 102.626 407.702 102.034 405.729C98.0876 391.67 82.3028 381.064 72.4373 389.697C70.3396 391.469 68.9362 393.927 68.4759 396.636C68.0155 399.345 68.5277 402.128 69.9216 404.495C58.2803 404.791 55.1233 409.428 53.7915 415.496C51.1278 429.8 74.1637 431.478 80.0337 425.854C82.3028 423.585 80.4283 421.07 76.0382 422.451Z" fill="#000001"/>
<path d="M42.5454 334.796C41.8055 333.316 41.3122 330.455 37.9086 332.527C24.0476 340.962 26.8592 339.63 23.1103 335.634C17.487 329.764 16.0565 327.495 13.2448 328.186C12.0117 328.531 12.3076 331.047 12.6036 332.379C16.0072 348.163 17.0924 343.971 10.6798 346.338C9.19999 346.93 7.91747 347.621 1.89951 350.137C1.33266 350.396 0.852539 350.814 0.515879 351.338C0.179218 351.863 0 352.473 0 353.096C0 353.72 0.179218 354.33 0.515879 354.855C0.852539 355.379 1.33266 355.796 1.89951 356.056C20.2494 362.912 16.1058 361.63 17.339 369.374C18.7695 378.253 19.0162 380.473 20.8906 380.67C21.6548 380.773 22.4317 380.621 23.1005 380.238C23.7693 379.854 24.293 379.261 24.5902 378.549C32.2853 359.854 27.2539 364.787 34.4557 366.069C46.8369 368.289 47.4782 369.522 49.2539 367.352C51.0297 365.181 47.4288 361.975 45.653 359.953C34.0117 346.536 37.4647 355.415 42.5454 334.796ZM38.8952 361.778C36.2594 361.581 33.6997 360.807 31.3974 359.509C25.1821 357.486 25.1821 369.917 22.7157 372.038C22.1185 369.431 21.788 366.77 21.7292 364.096C21.7292 358.67 18.7695 358.276 9.79192 353.343C7.81882 352.208 12.3076 351.764 17.3884 349.199C22.4691 346.634 18.4242 341.702 18.3256 338.249C18.3256 336.177 21.7785 341.159 23.9489 343.872C27.3032 348.065 27.6978 341.406 37.1194 338.594C35.5409 346.733 30.0655 348.854 35.3436 354.477C43.0387 362.715 40.9669 361.975 38.8952 361.778Z" fill="#000001"/>
</svg>
